<?xml version="1.0" encoding="utf-8"?>
<!-- Generator: Adobe Illustrator 26.0.1, SVG Export Plug-In . SVG Version: 6.00 Build 0)  -->
<svg version="1.1" id="Layer_1" xmlns="http://www.w3.org/2000/svg" xmlns:xlink="http://www.w3.org/1999/xlink" x="0px" y="0px"
	 viewBox="0 0 850 850" style="enable-background:new 0 0 850 850;" xml:space="preserve">
<style type="text/css">
	.st0{fill:#FEF6DB;}
	.st1{opacity:0.2;}
	.st2{fill:#222222;}
	.st3{fill:#90CFF1;}
	.st4{fill:#FAD121;}
	.st5{fill:#FFFFFF;}
	.st6{fill:#4862DD;}
	.st7{fill:#FF0E0E;}
	.st8{fill:#39E27D;}
	.st9{fill:#9CB5FE;}
</style>
<g>
	<g>
		<path class="st4" d="M739.8,768.9c-8.8-1-17.4,0.1-25.9,1.9c-2.4,0.5-5,0.4-7.4-0.3c-2.3-0.7-4.7-0.8-6.9-0.4
			c-12.6,2.7-25.4,1.5-38.1,1.4c-7.8-0.1-15.6,0.5-23.4,0.1c-10.5-0.5-21.1-0.8-31.7-0.5c-10.9,0.3-21.6-0.2-32.4-1.8
			c-2.7-0.4-5.6,0.7-8.4,0.7c-13.5,0.2-26.9-0.9-40.3-1.6c-4.1-0.2-8.2,0.4-12.4,0.3c-11.7-0.3-23.5,0.3-35.2,0.2
			c-9.6-0.1-19.3-0.3-28.8-0.3c-7.7,0-15.5,0-23.2,0.1c-12.6,0.3-25.2,0-37.7-1.3c-6.6-0.7-12.9,1.1-19.4,0.7
			c-12.7-0.9-25.1,2.2-37.6,3.3c-9.6,0.8-19.3,2.3-29.3,1c-9.1-1.2-18.6-0.3-27.9,0c-6.4,0.2-12.6,1.6-19.1,0.9
			c-8.1-0.9-16.4,0.4-24.7,0.6c-16.1,0.3-32.3,0.5-48.2-2.4c-4-0.7-7.5,0.7-11.4,0.5c-19.3-0.9-38.4-2.9-56.6-9.6
			c-8-2.9-15.8-1.9-23.4-0.8c-4.3,0.6-8.3,4.8-13.4,4.2c-7.3-0.8-13.8-3.2-20.3-7c-10-5.9-14.6-15.5-20.2-24.6
			c-1.2-1.9-2.1-4.3-2.2-6.5c-0.6-8.1-1.9-16.3-0.8-24.2c1.1-8.4,2.5-17.1,5.8-25.1c5.5-13.3,11.1-26.7,16.9-39.9
			c1.6-3.7,3.8-7.3,5.7-10.9c7.7-14.7,16.2-28.9,23.6-43.7c6.8-13.5,14.8-26.2,22.4-39.2c8.9-15.3,17.1-30.9,25-46.7
			c4.9-9.9,9.7-20,15.9-28.9c7.9-11.3,12.2-24.7,21.6-35c1.4-1.5,2.4-3.6,3.2-5.6c4.8-11.9,12.8-21.9,18.9-33
			c6.8-12.4,12.8-25.3,19.8-37.6c4.6-8.2,9.4-16.3,15.6-23.6c3.3-3.9,5.9-8.5,7.9-13.2c4.4-10.4,11.4-19.3,16.6-29.2
			c8.4-16.1,17.6-31.8,27.4-47.2c11.5-18.1,18.7-38.4,29.9-56.6c4.1-6.7,8.5-13.2,14.1-19.1c4.6-4.8,7.5-11.3,10.9-17.2
			c4.9-8.5,11.1-16.1,16.7-24.1c8-11.5,17.7-21.8,24.3-34.4c3.3-6.4,9.3-10.8,14.7-15.4c2.1-1.8,5.1-2.4,8-2.3
			c7.3,0.2,14.5-1.3,21.8-1.8c14.8-0.9,29.1,1.1,41.9,9.5c2.7,1.8,6.1,2.6,9,4.2c13.8,7.5,22.2,20,29.8,33.1
			c3.4,5.8,8.6,10.2,11.6,16.1c4.1,8.1,12,13.9,14.8,22.9c0.3,1.1,1.8,2,2.9,2.6c2,1.1,3.6,2.7,4.3,4.7c2.9,8,8.4,14.6,10.7,22.9
			c1.8,6.3,6.3,11.5,9.2,17.4c4.6,9.4,10.9,17.9,16.5,26.9c2.9,4.7,7,8.4,9.9,13c5.5,8.3,11.3,16.4,15.2,25.5
			c2.4,5.6,6,10.4,9.2,15.3c4,6.1,5.5,13.1,8.6,19.5c4.1,8.3,8.4,16.5,14,24c7.5,10.1,14.2,20.8,21.8,30.8
			c6.6,8.6,10.6,18.5,15.5,28c4.5,8.9,9.8,17.3,14.4,26.1c4.1,7.9,7.4,16.3,11.6,24.1c4.4,8.2,8.9,16.4,14.4,23.9
			c4.8,6.6,7.2,14.2,11.3,21c3.7,6.2,7.6,12.5,10.7,19c3.5,7.3,8,14.1,11.4,21.4c1.6,3.4,4.1,6,6,9.1c7.3,12,14.5,24.1,21.9,36
			c9.3,15,15.7,31.4,24,46.9c6,11.2,11.7,23,14.1,35.8c0.3,1.5,0.6,2.9,1.2,4.3c7.7,17.7,6.7,36,5.2,54.7
			c-0.9,10.8-5.6,19.7-11.2,28.3c-3.9,6.1-10.2,10-15.7,14.3c-11.5,9-26,10.8-39.9,13.6C742.9,769.2,741.3,768.9,739.8,768.9z"/>
	</g>
	<g>
		<path class="st5" d="M414.1,257.3c11.8-1.8,23.5,1,35.3-0.5c11.3-1.4,21.6,3,31.2,8.6c7,4.1,6.8,11.8,7.7,18.5
			c0.3,2.5,0.1,5.3,0.5,7.9c1.9,14.7-0.5,29.2-2.5,43.5c-1.2,8.9-2.7,17.9-4.9,26.8c-1.4,5.8-0.6,11.9-1.5,17.8
			c-3.5,21.6-3.7,43.6-7.5,65.1c-2.3,13.1-4.3,26.2-5.9,39.3c-1.3,10.3-3.8,20.6-3.7,31.1c0,1.8-0.4,3.6-0.9,5.4
			c-2,6.3-4.2,12.6-5.8,19c-2.5,9.9-9.7,15-19.6,17.6c-10,2.7-19,1.1-28.1-2.8c-12.3-5.3-17.7-15.5-19-28.2
			c-1.3-12.4-0.1-24.9-2-37.3c-0.9-6-2.1-12-3.5-18c-2.5-11.3-4.3-22.8-6.3-34.2c-2.3-13.3-1.9-26.9-5.5-40.2
			c-1.9-6.9-3.1-14.6-2-22.1c0.1-0.5,0.2-1,0.1-1.5c-5.1-20.4-3.4-41.5-6.9-62.1c-1.2-7-2.8-13.9-2.9-21.2
			c-0.2-12.2,4.6-20.4,16.1-26C388.5,257.8,401.6,259.9,414.1,257.3z"/>
		<path class="st5" d="M462.3,650.8c2.1,12.6-4.8,21.2-14.1,27.7c-10.7,7.5-23.1,11.7-36.3,8.4c-9.2-2.3-17.7-6.5-23.3-15
			c-3.1-4.7-3.8-10-4.2-15.2c-0.4-5.7,0.3-11.6,0.8-17.3c0.6-6.1,4.4-10.8,8.1-15.2c10.7-13,24.8-17.7,41.3-16.5
			c9.8,0.8,21,9.5,23.3,19.2C459.8,634.8,463.1,642.4,462.3,650.8z"/>
	</g>
	<g class="st1">
		<path class="st2" d="M434.3,768.2c4-1.9,8.2-1,12.3-1.3c12.9-1.2,25.8-3.1,38.6-2.6c10.7,0.4,21-1.8,31.5-2.7
			c16.9-1.4,33.7-3.3,50.5-5.5c15.2-2,29.7-6.8,44.9-8.8c9.7-1.3,19-5.8,28-10.2c3.9-1.9,7.8-3.8,12-5c6.8-2,13-5,18.4-9.7
			c4.8-4.1,9.8-7.9,15-11.6c6.7-4.8,8.6-12.9,11.5-20c1.5-3.6,3.1-6.9,5-10.3c3.6-6.5,6.2-13.2,5.7-21.1c-0.6-7.7-1.4-15.6,1-23.3
			c1.1-3.4,0-6.7-0.9-9.8c-1.2-4.3-1.8-8.5-1.4-12.8c0.5-6.3-3.5-11.3-4.9-17.1c-1.9-8.2-3.4-16.6-8.7-23.7
			c-1.8-2.3-2.4-5.5-2.5-8.5c-0.2-3.6-1.5-6.8-3.1-9.9c-0.6-1.2-1.7-2.3-1.8-3.5c-0.8-9.4-7.1-16.7-9.3-25.5
			c-1-4.1-3.3-7.6-4.9-11.4c-3.5-8-6-16.5-8.8-24.7c-0.5-1.4-0.5-3.1-1.3-4.2c-6.3-8.5-7.9-18.9-12.1-28.3
			c-3.1-7.1-5.8-14.5-10.2-21.1c-1.6-2.3-3.2-4.9-3.6-7.6c-1.8-10.6-7.6-19.5-12.1-28.8c-7-14.5-12.6-29.6-20.8-43.5
			c-1.7-2.9-2.7-6.5-3.4-9.9c-2.7-13.9-12-24.7-16.9-37.6c-4-10.6-9.9-20.4-13.6-30.9c-4.2-12-12.2-21.8-16.6-33.2
			c-5.7-14.8-15.5-27.7-18.8-43.4c-0.2-0.8-0.6-1.6-1.1-2.2c-10.5-13.1-16-29.2-25.2-43c-8.8-13.2-14.4-27.9-22-41.7
			c-4.1-7.4-9.2-14.2-13.8-21.3c-0.9-1.4-2.2-2.5-1.9-4.9c4.5,1.6,8.3,3.7,11.6,7.1c9,9.1,16.1,19.6,23,30.5
			c5.5,8.8,11.9,17.1,18.2,25.5c1.8,2.4,3.6,4.8,4.6,7.6c0.3,0.9,0.6,2.1,1.4,2.6c8.7,5.9,11.2,15.8,15.2,24.5
			c3.9,8.6,8.6,16.7,13.1,24.9c5.9,10.7,11.7,21.6,19.7,30.8c5.4,6.2,8.7,13.7,13.9,19.9c2.7,3.2,4.3,7.5,6,11.4
			c2.9,6.6,7.4,12.2,11,18.3c2.2,3.6,3.2,7.6,4.7,11.5c4.5,11.3,10.7,21.6,17.7,31.6c8,11.4,16.3,22.5,24.2,34
			c4.6,6.7,7.3,14.7,11.1,22c4.8,9.1,10.1,17.9,14.9,27.1c4,7.8,7.3,16,11.4,23.7c4.4,8.2,8.9,16.4,14.3,23.9
			c4.8,6.6,7.3,14.2,11.4,21c3.8,6.4,7.8,12.7,10.9,19.5c3.3,7.3,7.9,13.8,11.2,21c1.6,3.4,4.1,6,6,9.1
			c7.2,11.9,14.4,23.8,21.7,35.6c9.3,15,15.7,31.5,24,47c5.9,11.1,11.5,22.7,14.1,35.4c0.3,1.6,0.7,3.3,1.3,4.8
			c7.8,17.9,7,36.4,5.2,55.2c-0.7,6.8-3.7,12.3-6.8,18c-0.5,0.9-1.3,1.7-1.4,2.6c-1.9,10.5-11,15.2-18,21.1
			c-5.5,4.6-12.2,8.4-19.9,9.6c-8.8,1.3-17.2,5.5-26.4,4.6c-8.3-0.8-16.4,0.3-24.5,1.8c-2.4,0.5-5,0.4-7.4-0.3
			c-2.5-0.7-5-0.8-7.4-0.3c-12.3,2.7-24.7,1.5-37.2,1.3c-8-0.1-15.9,0.3-23.9,0.1c-8.9-0.2-17.8-0.6-26.7-0.6
			c-12.5,0.1-25,0.2-37.4-1.8c-2.5-0.4-5.3,0.6-7.9,0.7c-13.5,0.2-26.9-0.9-40.3-1.6c-4.3-0.2-8.5,0.4-12.9,0.3
			c-11.1-0.4-22.2,0-33.2,0.1c-10.3,0-20.5,0.5-30.8-0.4C443.9,767.8,439.1,769.4,434.3,768.2z"/>
		<path class="st2" d="M389.1,523.5c1-3.8-1.9-7.9,0.2-10.5c2.1-2.7,6.6-1.2,9.9-2.3c2.6-0.9,4.8-2,6.2-4.6c0.8-1.6,1.8-3.5,3.3-4.4
			c10.2-6.4,13.7-17.5,18.3-27.3c6.1-13,12.1-26.2,16.3-40c1.6-5.4,3.7-10.7,5.6-16c2.8-8,3.5-16.2,3.5-24.6c0-2.2-0.1-4.4,0.8-6.4
			c4-9,4-18.7,4.3-28.3c0.2-4.9,0.7-10.2,2.5-14.7c3.3-8.3,2-17,3.6-25.4c1.7-8.8,1.2-17.8,3.9-26.4c1.6-5.2,2.1-10.8,1.8-16.3
			c-0.2-4.1,1.2-7.9,2-11.8c0.5-2.5,2-2.4,3.7-1.7c6,2.3,10.6,5.7,11.7,12.9c2.6,17,2.6,33.8,0.3,50.9c-2.5,18.4-6,36.6-7.9,55.1
			c-2,20.8-3.5,41.7-6.9,62.3c-2,11.9-3.5,23.9-5.4,35.8c-1.9,11.8-3,23.7-4.3,35.6c-0.2,2-0.6,3.9-1.2,5.8
			c-1.9,6-4.1,11.9-5.5,18.1c-2.3,10-9.5,15.2-19.4,17.9c-9.2,2.4-17.8,1.4-26.3-1.9C395.5,549.5,390.1,537.9,389.1,523.5z"/>
		<path class="st2" d="M420,687.9c-10.3,0.1-17.8-5.2-25.5-9.6c-1.2-0.7-2.8-2-2-3.6c0.9-1.7,2.7-0.8,4-0.3c2.3,0.9,4.9,1.6,6.8,3
			c3.7,2.7,7.5,2.5,10.7,0.3c5.6-3.8,11.3-7.8,15.7-12.8c7.7-8.6,12.2-19.2,15.4-30.3c1.3-4.6,3.3-8.6,6-12.5c2.2-3,3.8-2,5.2,0.5
			c0.7,1.3,1.3,2.7,1.6,4.2c2,9,4.7,17.9,4.6,27.3c0,6.7-2.4,12.4-6.7,17.3C446.1,682.4,433.4,686.9,420,687.9z"/>
	</g>
	<g>
		<path class="st2" d="M745,784.8c-2.3,2.3-5.6,1.9-8.3,3c-3.3,1.3-6.7,1.2-10.1,0.9c-5.4-0.5-10.7,1.1-16.1,1.1
			c-5.3,0-10.7-0.6-16,0.2c-4.1,0.6-8.1,0.7-12.1,0.8c-1.1,0-1.9-0.3-2.6-1.1c-3.2,1.7-6.7,1.3-10,0.8c-3.9-0.6-3.9-0.9-7.8,0.1
			c-0.5,0.1-1,0.2-1.4,0.1c-5.3-2.1-10.8,0-16.1-1.1c-6.9-1.5-13.7-0.5-20.6-0.8c-1.7-0.1-3.5-0.6-5.2,0.9c-0.6,0.5-2.1,0.4-2.9,0
			c-2.8-1.3-5.7-1-8.6-0.9c-1.3,0.1-1.9-1.4-3.1-1c-0.8,0.3-1.3,1.3-2.3,0.1c-0.3-0.4-1.6-0.2-2.4-0.1c-2.2,0.4-4.6,2-6.5,0.8
			c-2.2-1.3-4.3-0.1-6.2-0.9c-3.5-1.5-7.1-1-10.6-0.8c-3.4,0.2-6.6,1.1-10.1,1c-2.4-0.1-4.6-1.6-7.1-1.1c-0.9,0.2-1.5,0.4-2,1
			c-2.5-1.7-4.8-0.9-7.2-0.1c-1.3,0.3-2.3-1.8-3.5-0.8c-2,1.5-4.1,0.9-6.1,0.9c-5.5,0.1-11,1.7-16.6,1c-2.7,1.5-5.4,1.5-8.2,0
			c-0.5-0.3-1.4-0.2-2,0c-4.9,1.7-10.1,0.7-15.1,1c-1,0-2,0-2.4,1.3c-2.8-1.8-5.7-1.9-8.2-0.9c-1.5,0.6-2.9,0.6-4.2,0.6
			c-11.2,0.1-22.3,0-33.5,0.1c-2,0-4.1-0.6-6.2,0.8c-1.5,1.1-4.2-0.7-6.1,1.1c-0.4,0.4-1.8,0.4-2.4,0c-2.3-1.5-4.7-0.9-7.1-0.9
			c-7-0.1-14,0-21,0c-1.3,0-2.6,0.1-3.6-1c-2.4,1.1-4.9,1.7-7.4,0.4c-1.2-0.6-2.5-0.7-3.7-0.1c-2.2,1.1-4.3,1.1-6.4,0
			c-0.5-0.3-1.5-0.5-1.8-0.3c-2.1,1.7-4.1,0.3-6.2,0.1c-2.3-0.2-4.9-1.1-7.1,0.7c-0.4,0.3-1.3,0.2-1.9,0.1
			c-4.5-0.5-9.2,1.1-13.6-0.9c-0.5-0.2-1.3-0.3-1.9,0.3c-1.4,1.4-3.4,1-4.7,0.6c-3.9-1.4-7.8-0.6-11.6-0.9c-1.9-0.1-3.9,0.5-5.6-0.9
			c-0.5-0.4-1.7-0.3-2.4,0c-4.3,1.6-8.5,1.5-12.7,0c-0.5-0.2-1.3,0-1.9,0.2c-3.8,1.4-8,1.3-11.9,2.7c-0.6,0.2-1.6,0.4-2.3-0.4
			c-0.8-0.9-1.8-0.6-2.7-0.4c-4,1.1-4,1.1-8.8-0.1c-0.9-0.2-2-0.2-3-0.1c-4.7,0.3-9.5-0.9-14.1,0.9c-0.6,0.2-1.7,0.4-2.3-0.3
			c-1-1-2.1-1-3-0.2c-1.4,1.1-3,0.9-4.2,0.5c-4.3-1.4-8.5-1.5-12.7,0c-1,0.4-2.4,0.2-3.5,0c-5.8-1.1-5.8-1.1-11.2,0c-1,0.2-2,0-3,0
			c-4.3,0-8.7,0.2-13-0.1c-2.6-0.1-4.9,1.5-7.6,1.1c-1-0.1-1.8-0.4-2.6-1.1c-1.3,0.3-2.5,1.7-4,1c-3.6-1.5-7.1-1.4-10.7,0
			c-0.6,0.2-1.3,0-2,0c-9.8,0-19.7,0-29.5,0c-1.5,0-2.9,0.1-4-1.1c-1.8,1.4-3.8,1.3-5.6,1c-4.3-0.9-4.3-1.1-7.8,0
			c-2.7,0.8-5-0.7-7.4-1.2c-0.5-0.1-1-0.8-1.7-0.7c-4.8,0.8-9.3-1.6-14-0.9c-1.7-1.9-3.9-2.3-6.2-2c-4.5,0.6-8.7-1-13.1-1.2
			c-2.6-0.1-5.5-1.3-8-2.3c-1.8-0.7-3.5-0.1-5.2-0.8c-4.3-2-8.8-3.7-13.3-5.3c-3-1.1-5.9-2.6-9.1-3.4c-1.7-0.5-3.3-1.8-4.8-2.9
			c-3.5-2.6-7.8-4-11.1-7c-0.5-0.4-1.1-0.7-1.5-1.2c-1.1-1.2-2-2.8-3.4-3.7c-1.3-0.9-2.2-2.4-3.9-2.6c-3-5.5-9.5-8.4-11-14.9
			c-0.1-0.6-0.7-1.2-1-1.5c-4-3.7-4.2-9.4-7.6-13.5c-1.3-1.6-1.7-4.3-2.2-6.5c-0.5-2.5-1.6-4.7-2-7.2c-0.2-1.3-1.3-2.2-1.2-3.6
			c0.1-1.1,0.5-2.6-0.1-3.4c-1.4-2.3-0.8-4.8-0.9-7.1c-0.1-1.1-0.4-2.4,0.8-3.1c-0.6-0.9-0.7-1.9-0.9-3c-0.3-1.7,1.2-2.7,1.1-4.1
			c-0.3-3.3,0.6-6.4,1-9.6c0.2-1.8,0.8-3.5,1.3-5c0.7-1.9,0.5-3.8,0.9-5.6c1.3-2,2.5-4.1,4-5.9c1.3-1.6,1.9-3.2,1.9-5.2
			c0.1-2.7,1.1-5.2,2.7-7.4c1.1-1.6,2.3-3,2.4-5.1c0-0.9,0.7-2,1.2-2.4c3.5-3.3,4-8.1,6.7-11.8c3.9-5.3,5.8-11.7,9.8-16.9
			c1-5.1,4.2-9.2,6.3-13.9c0.9-2.1,2-4.2,3.5-6.1c1.1-1.5,2.4-3.3,2.4-5.4c0-2.3,1.1-4,2.7-5.4c2.2-1.9,3.7-4.3,4.9-7
			c0.9-2,1.9-3.9,3.4-5.6c2.5-2.8,3.1-6.7,4.9-10c0.6-1,1.3-1.8,2.1-2.9c-0.7-3.7,1.1-6.6,4-8.8c0.1-1.1,0.3-2,0.7-2.9
			c0.8-2,2.5-3.6,2.4-6c0-0.9,0.9-1.9,1.6-2.8c4.5-5.7,8.6-11.5,11.4-18.3c1.4-3.2,3.6-6.1,5.3-9.3c0.8-1.4,1.4-2.8,2-4.2
			c0.9-2.3,1.3-4.9,3.5-6.6c0.3-0.3,0.5-1.1,0.7-1.7c1.5-5.2,4.7-9.2,8.2-13.1c0.8-0.9,1.2-1.9,1.7-2.8c1.3-2.4,2.2-4.9,4.2-6.1
			c1-4.2,2.8-7.5,4.7-10.7c1.8-2.9,3.8-5.6,5-8.9c0.8-2.2,2.2-4.1,3.7-6c1.7-2.2,3.2-4.7,4.7-7c1-1.5,2.5-2.6,3.5-4
			c3.1-4.5,6.2-9,8.6-13.9c0.8-1.7,1.6-3.5,3.1-4.7c1.1-1,1.3-2.5,2-3.7c1.6-3,3-6,5.7-7.9c0.7-1,0.1-2,0.8-2.9
			c2.3-3,3.4-6.8,6.4-9.3c0.3-0.2,0.7-0.4,0.7-0.7c0.5-5.1,5.8-7.5,7.1-12.1c0.4-1.3,1.1-2.3,2.1-3.1c1.2-0.9,2-2.4,2.1-3.6
			c0.1-2.6,1.2-4.5,2.8-6.4c2.3-2.7,2.4-6.8,5.3-9.3c-0.5-3.5,1.6-5.7,3.9-7.9c-0.6-1.9,1.8-3.1,1-5.2c3.5-2.6,5.8-6.2,7.5-10.3
			c0.3-0.8,0.4-1.8,1.3-2.5c2.8-2.1,4.1-5.1,5.4-8.3c0.5-1.1,1.2-2.3,2.1-3.1c2-1.7,3-4,4.2-6.3c1.3-2.4,2.7-4.9,4-7.4
			c1.2-2.2,2.3-4.7,3.3-7.1c0.5-1.3,1.3-2.5,2.3-3c1.7-0.8,2.6-2.3,3.3-3.6c2.1-3.6,4.3-7.2,6.5-10.8c0.5-0.8,1.3-1.7,1.2-3
			c-0.1-0.9,0.6-2.2,1.3-2.9c3.9-3.7,5.3-8.9,8-13.2c2.3-3.8,4.7-7.8,6.4-11.8c1.9-4.6,5.7-7.9,7.2-12.5c0-0.1,0.1-0.3,0.3-0.4
			c2.8-1.7,3.7-4.8,5.2-7.4c1.4-2.3,2.5-4.8,4.7-6.5c0.3-0.2,0.6-0.4,0.7-0.7c1.5-5.8,6.2-10.2,7.7-15.8c1.7-6.4,6.5-10.9,8.5-17
			c2.8-2.3,3-6.3,5.1-8.9c3.5-4.3,4.4-10.1,8.5-14c0.7-2.9,2.2-5.4,3.4-8.1c0.5-1.1,1-2.4,1.9-3.2c4.5-4,6.7-9.6,10-14.4
			c0.7-1.1,1.5-2.1,2.4-3c2-2.1,3.6-4.4,5-7c1.3-2.3,2.7-4.4,3.2-7.2c0.7-3.9,3.4-6.8,6.3-9.3c0.7-4.5,8.5-15.1,14.3-22.4
			c0-1.2,0-2.7,0-4.1c0.6-0.5,1.1-1,1.7-1.3c2.3-1.3,4.4-2.4,6-5c1.5-2.6,3.9-5,6.9-5.9c2-0.6,2.5-3.1,4.7-3.1c2.6-3.6,7-5,10.3-7.9
			c2.6-2.3,5.2-5.1,9.2-5.5c0.8-0.1,1.8-0.7,2.4-1.4c2-2,4.7-2.7,7.2-3.1c3.3-0.6,6.2-2.1,9.5-2.7c1.1-0.2,2.2-0.2,3.3-0.5
			c2.9-0.6,5.8-1.1,8.7-1.7c1.1-0.4,1.7,0.9,3,0.7c1.8-0.2,3.7,0.1,5.5-0.1c5.1-0.5,9.8,1.2,14.5,2.6c1.8,0.6,4-0.7,5.5,1.2
			c2.9-0.6,4.9,1.9,7.6,2.2c2.6,0.3,5,1.3,7.4,2.6c1.4,0.8,3.3,0.8,5,1.2c2,0.5,4.1,1.3,5.4,2.5c2.1,1.9,4.7,2.8,7.1,3.4
			c3.2,0.7,5.4,2.6,7.7,4.4c3.2,2.5,6.1,5.2,9.5,7.4c2.1,1.4,2.9,4.1,5.2,5.2c2.4,1.1,4.2,3.1,5.9,5c1.4,1.5,2.6,3.2,3.8,4.9
			c0.3,0.5,0,1.3,0,1.8c5.9,5.9,10.8,12.3,14,19.9c0.9,2.1,2.4,3.8,4.1,5.3c1.7,1.5,2.9,3.4,2.9,5.9c3.2,2.2,4.1,6.1,6,9.4
			c0.9,1.5,1.3,3.3,2.8,4.3c1.1,0.7,1.4,1.9,1.7,2.8c1.3,4,4,7,6.4,10.4c1.4,2,3.6,3.7,3.2,6.7c-0.1,0.8,0.7,1.9,1.2,2.4
			c2.7,3.2,3.8,7.1,5.8,10.6c1.3,2.3,2.7,4.6,4.4,6.6c1.7,2,2.9,4.2,3.5,6.6c0.5,2,1.4,3.6,2.8,4.8c2.5,2.2,3,5.1,3.4,8.4
			c1.4,1.6,3.3,3.1,4.5,5.4c0.6,1.1,1.7,2,1.3,3.5c2,1.3,0.1,4.2,2.4,5.6c1.6,1,1.1,3.5,2.2,5c0.6,0.8,0.2,1.6,0.4,2.4
			c4.1,4.2,7,9.3,9.9,14.4c1.4,2.5,2.3,5.1,4.4,7.2c0.8,0.9,1.9,2.2,1.7,3.8c-0.3,1.8,0.7,3.3,1.7,4.3c2,2.1,3.1,4.7,4.4,7.2
			c1.2,2.5,4,4.2,4,7.3c2.2,1.1,1.9,3.6,2.9,5.3c0.4,0.6,0.1,1.6,0.1,2.6c2.8,2.9,6.2,5.6,7.4,10.5c4.2,2.7,5.9,7.8,8.6,12.3
			c2,3.3,4.8,6.2,5.2,10.4c1.7,1.3,3.1,3,3.8,4.9c0.7,2.1,3.1,3.3,3.1,5.7c0,2.3,2,3.5,2.9,5.3c0.6,1.3,1.6,2,2.3,3
			c1.6,2.1,3.2,4.1,4,6.9c0.8,2.7,2.6,5.3,4.5,7.6c2.5,2.9,4.6,5.9,5.7,9.7c0.6,2,2.2,3.7,3.4,5.6c1.4,2.1,2.6,4.2,3.2,6.7
			c0.6,2.8,2.9,4.7,4.1,7.3c0.9,2.1,2.1,4.1,3.2,6.2c1,2,2.5,4,3.5,6.1c1.6,3.3,3.4,6.4,6.1,8.9c2.3,2.1,3.5,4.6,3,7.7
			c1.6,2.4,2.7,5,4.7,7.2c1.1,1.3,2,3.4,2.5,5.4c0.8,2.8,2.2,5.5,4,7.9c2.2,2.9,3.2,6.4,4.3,10.3c2.9,2,5.4,5.4,6.8,9
			c2,5,5.8,9.2,6.8,14.7c0.5,3.1,3,5.4,4.5,8.1c1.3,2.5,3.1,4.6,3.6,7.6c0.3,1.6,1.3,3.2,2.4,4.5c0.8,0.9,0.3,1.9,0.6,2.8
			c1.1,0.6,2.2,0.9,2.9,2.2c3.5,6.2,6.9,12.6,11.1,18.4c2.6,3.6,4.8,7.4,6.6,11.3c1.7,3.9,4.9,6.8,6.4,10.9c0.6,1.5,2.6,2.5,3.7,3.5
			c-0.3,2.5,2,4.2,1.1,6.3c2.8,4.1,8.6,6.2,8.1,12.3c4.3,3.9,6.8,9.1,9.9,14c0,1.2,0,2.6,0,3.7c3.4,4.8,6.5,9.5,9.9,14.1
			c1.2,1.6,1.7,3.2,2.3,5.1c0.9,2.6,2.4,5.1,4.1,7.3c2.7,3.5,3.8,5.8,3.8,10.1c2.3,1.3,3,4.1,4.9,5.9c0.3,0.3,1.1,1.4,1,2
			c-0.4,3.8,2.4,6.1,4.1,8.8c1.6,2.5,3.5,4.8,4.5,7.6c1.4,4.2,4.4,7.3,6.9,10.6c1.9,2.5,2.9,4.9,2.6,8c2.5,0.9,2.5,3.4,2.9,5.2
			c1.2,5.5,3.1,10.7,4.6,16.1c0.6,2.1,1.3,4.2,1.4,6.4c0,2,1.5,3.5,1.2,5.6c-0.3,1.8-0.6,3.8,0,5.5c1.5,4,0.7,8.1,0.9,12.1
			c0.1,4,0.5,8.1-0.1,12c-0.9,6.2-1.6,12.5-3.9,18.4c-1.1,2.7-2.6,5.1-5.6,6.3c-1.1,3.5-2.8,6.9-5.1,10.2c-2.4,3.3-5.7,6-7.3,10
			c-0.3,0.9-1.3,1.5-2,2.2c-2.8,2.8-5.8,5.6-8.4,8.5c-2.5,2.8-6.7,3-9.1,5.9c-1.8-0.1-2.5,1.5-3.4,2.5c-2.1,2.3-4.9,3.3-7.6,4.5
			c-4,1.7-8,3.3-12,4.9c-2.4,1-4.8,2.2-7.6,2.1c-1.5,0-3.1,0.5-4.5,1.2c-2.6,1.4-5.4,1.9-8.3,1.7C747.3,784.7,746.1,784.8,745,784.8
			z M256.8,766.2c0.9-2.2,3-1.8,3.9-1.3c1.9,1.2,3.8,0.8,5.7,0.8c6.5,0.1,13,0,19.5,0c1,0,2.2-0.3,3,0.1c2.8,1.4,5.3,0.8,8.2,0.1
			c2.9-0.7,5.9-1.4,9-1.3c3.8,0.1,7.8,1,11.6-0.8c0.7-0.3,1.8,0.2,2.8,0.3c5,1,10,1,15,0c2.7-0.6,5.3-0.6,8.1,0.1
			c2.9,0.8,6,2.4,8.9,1.3c2.6-1.1,5.1-0.5,7.6-0.9c2.8-0.5,5.4,1,8.1,1c4.2-0.1,8.4,0.1,12.6-0.7c3.6-0.7,7.8-1.3,11.6,0.7
			c0.5,0.3,1.4,0.3,2,0c3.4-1.9,7.1-0.8,10.6-0.9c3.2,0,6.4-0.6,9.6,0.8c1.3,0.6,3.5,0.8,5.2-0.5c1-0.9,2.8-0.7,3.8-0.2
			c4.2,1.9,8.5,0.3,12.6,0.9c1.2,0.2,1.4-1.4,2.6-1c0.7,0.6,1.6,1.5,2.5,0.9c3.1-1.7,6.4-0.5,9.6-1c1.3-0.2,1.5,1.3,2.6,1.1
			c2.6-1.2,3.5-1.4,5.9-0.5c1.6,0.6,2.8,0.3,4.5-0.2c2.9-0.8,5.9-2.9,9.1-0.4c0.6,0.5,2.4,0.5,2.9,0c1.4-1.5,3.1-0.8,4.7-0.9
			c3.3-0.1,6.7,0.1,10-0.1c3.4-0.2,6.8,0.8,10.1-0.9c0.6-0.3,2-0.3,2.4,0.1c1.1,1.2,2.5,0.6,3.7,0.8c4.8,0.7,9.4-1.1,14.1-1.1
			c0.7,0,1.1-1.3,2.1-0.9c0.7,1.1,2,1.3,3,0.9c0.7-0.2,1.2-1,2.1-0.9c3.8,0.1,7.7-0.2,11.5,0.1c3.8,0.2,7.3-1.5,11.1-1.2
			c2,0.1,3.5,1.5,5.6,1.2c2-0.3,4.2,0.5,5.9-0.2c3.4-1.3,6.8-0.6,10.1-0.9c8.2-0.7,16.3,1.5,24.6,1.1c2.9-0.1,5.7,0.2,8.6,0.7
			c4.7,0.8,9.6,0.2,14.5,0.2c1.2,0,2.2-0.1,3.1-1c0.3-0.3,1.5-0.3,1.9,0.1c1.4,1.5,3.1,0.8,4.7,0.9c7.5,0.5,15.1-1,22.6,1
			c0.9,0.2,2.3,0.3,2.8-0.2c1.2-1.2,2.5-0.7,3.7-0.7c2.1-0.1,4.2-0.3,6.1,1c8.1-0.3,16,1.8,24.1,1c0.7-0.1,1.4,0.2,2-0.1
			c5.5-2.9,11.4-1.7,17.2-1.9c0.6,0,1.3,0,1.9,0.1c4.2,1.1,4.2,1,8.8,0c2-0.4,4.1,0,6.1-1.1c0.8-0.5,1.5,0.4,1.9,0.8
			c2.1-0.8,4.1-1.8,6.4-1.8c3.2,0,6.4,0.1,9.6-0.9c1.2-0.4,2.1-1.4,3.6-1.2c1,0.2,2.3,0.6,3.2-0.5c0.9-1,2.8,0.3,3.4-1.4
			c4.6-1.5,9.1-3.1,14.1-4.2c2.1-2,4.2-4.7,7.1-6.1c3.7-1.8,6.5-5.1,10-7.1c0.8-0.5,1.9-1.3,2.1-2.1c0.6-2.5,2.5-4,3.9-5.9
			c1.4-2,3-3.8,4.7-5.5c0.6-0.7,1.1-1.8,1.6-2.2c2.2-2.1,2.3-5.1,3.8-7.5c1.5-2.3,2.6-5.1,2.9-7.7c0.3-2.6,1.1-5.5-0.7-8.1
			c1.7-1.1,0.2-3.2,0.9-4.5c2.2-3.9,0.3-7.4-0.7-10.9c-0.5-1.7,0.2-2.7,0.8-4.1c-1.6-1.5-0.3-4-1.2-5.3c-1.6-2.3-0.5-3.9,0.3-6.1
			c-1.5-0.4-1.1-1.7-1.1-3.1c-3.3-2.4-4.6-5.9-4.2-10c-0.1-1.6-2-2.5-1.8-4.3c0-0.3-5.3-10-5.5-10.2c-2-1.9-3.1-4.4-4.7-6.5
			c-1.7-2.3-2.6-4.9-4-7.4c-1.2-2.1-3.2-3.9-4.4-6.1c-0.1-0.3-0.5-0.6-0.4-0.8c0.3-3.5-1.9-5.6-4-7.6c-0.1-0.9,0-1.6-0.2-2.2
			c-1.2-2.8-2.8-5.5-3.8-8.4c-0.6-1.7-1-3.4-2.3-4.6c-1.6-1.5-0.2-3.7-1.7-5.4c-0.6-0.6-1.2-1.5-1.8-2.2c-1-1.1-2.2-2.1-3.2-3.2
			c-1.3-1.4-2.4-3-2.2-5.1c-2.7-2.3-4.4-5.3-5.2-9.2c-4.6-2.9-5.2-8.8-7.7-13.4c-0.4-0.8-0.4-1.8-1.2-2.5c-1.7-1.5-3.2-3.2-3.9-5.4
			c-0.7-2.3-3.2-3-4.2-5.3c-0.9-2.1-2.5-3.8-3.1-6.3c-0.3-1.3-1-3.1-2-4.1c-3.2-3.2-4.9-7.4-7.8-10.8c-1.2-1.4-0.8-2.7-0.9-3.4
			c-3.3-5.2-7.8-8.8-8.2-14.5c-2.7-3.6-5.6-6.7-7.7-10.2c-1.1-1.9-2-3.9-3.7-5.5c-1.3-1.2-2.2-2.7-2.5-4.5
			c-0.6-3.9-3.8-6.8-4.6-10.6c-2.3-1.6-2-4.5-3.5-6.6c-1.5-2-2.8-4.2-3.5-6.5c-0.7-2.4-2.1-4.1-3.3-6.1c-1.5-2.5-2.7-5.2-4-7.8
			c-1.5-3-3-6.1-4.7-9.1c-2.4-4.4-5.1-8.5-7.1-13.1c-1.2-2.6-2.4-5.1-4.3-7.2c-1.6-1.7-2.7-3.9-3-6.2c-0.2-1.8-0.8-3.3-2-4.7
			c-3.1-3.8-5.4-8-7.5-12.4c-1.4-2.9-3.4-5.6-4.4-8.7c-0.3-1-0.9-1.7-1.5-2.4c-3.5-4.1-6-8.7-7-14.3c-3.1-1.5-4.3-4.7-5.5-7.5
			c-0.8-1.9-1.6-3.6-2.6-5.4c-2.3-4.3-6.3-7.5-7.6-12.3c-0.2-0.6-0.9-0.9-1.3-1.5c-1.4-2.1-3.3-4-4.2-6.3c-1.6-4.1-4.1-7.7-6.5-11.3
			c-0.7-1-1.8-2.4-1.8-3.2c-0.1-2.6-2-4-3.2-5.7c-1.2-1.8-2.9-3.4-4.1-5.3c-1.3-2-3.5-3.9-3.6-5.9c-0.1-2.9-3-3.4-3.3-5.7
			c-0.1-0.8-0.9-1.5-1-2.6c-0.1-1-0.7-2-1.3-2.9c-2.6-4.1-5.8-7.8-7.7-12.3c-0.3-0.7-1-1.2-1.5-1.9c-1.8-2.5-3.5-5-4.6-8.1
			c-1-2.7-1.9-5.5-3.5-8.1c-1.8-3.1-3.1-6.4-5.2-9.4c-2-2.8-2.5-6.7-5.1-9.3c-1-1-0.6-2.9-1.4-3.9c-2-2.3-4.2-4.6-5.4-7.3
			c-1.2-2.8-2.7-5.3-4.5-7.6c-1.6-2.1-2.1-4.5-3.4-6.6c-1.5-2.4-3.3-4.6-3.3-7.7c0-1-0.6-2.2-1.3-2.9c-2.8-2.7-4.6-5.9-6.5-9.3
			c-1.4-2.7-2.4-5.4-3.5-8.9c-0.6-0.5-1.8-1.5-2.5-2.1c-0.3-1.3,0.1-2.1-0.6-2.8c-1.2-1.4-1.5-3.4-2.8-4.9c-1.3-1.5-1.4-3.7-2.4-5.5
			c-0.9-1.8-2.5-2.8-3.4-4.6c-2.2-4.1-4.4-8.2-7-12.1c-2.6-3.9-3.9-8.8-8.2-11.6c0.9-1.9-1.4-3-0.7-4.9c-2.8-2.4-4.6-5.5-5.2-9.2
			c-1.8-1.8-4-3.4-4.7-6c-0.3-1.1-0.9-1.7-1.6-2.3c-3-2.6-5.1-6-7.6-8.9c-1.8-2.1-4.3-4-4.8-6.9c-0.2-1-0.9-1.9-1.3-1.9
			c-1.9,0-1.5-1.8-2.4-2.5c-1.1-0.9-2.5-1.3-3.5-2.4c-2.9-3.2-6.6-5.5-10.5-7.2c-3.1-1.4-5.5-4.3-9.1-4.5c-2.1-2.4-5.2-2.7-8-3.7
			c-2.6-1-5.6-1.3-7.9-2.5c-2.3-1.2-4.5-1.4-6.9-1.5c-0.6,0-1.6,0.2-1.9-0.2c-1.4-1.5-3.2-0.9-4.7-0.7c-1.8,0.2-3-1.3-4.6-1.1
			c-0.5,0.1-1.2-0.2-1.5,0c-1.7,1.7-3.8,0.7-5.6,1c-1,0.2-1.9-0.2-2.9,0.3c-3.3,1.6-7.2,2-10.2,4.3c-0.8,0.6-1.6,0.3-2.5,0.5
			c-1.9,1.9-3.8,4.3-7,4c-1.3,1.3-2.3,3-3.7,3.5c-1.9,0.6-1.7,2.6-3.1,3.2c-4.4,1.9-7.5,5.5-10.8,8.8c0,0.7,0,1.4,0,1.8
			c-2.4,2.6-5.4,4.6-6.8,7.5c-2.8,5.9-7,11-9.2,17.2c-0.4,1.2-1,2.4-1.8,3.2c-3.1,2.9-5,6.5-7.1,10.6c0.7,3.3-1.2,6-3.8,8.5
			c-4.2,4-7.3,8.8-10.3,13.7c-1,1.6-2,3.2-3.2,4.7c-2,2.3-3.4,4.8-3.8,7.9c-0.2,1.5-0.9,3.1-2.2,4.1c-1.3,1-2,2.5-2.7,3.9
			c-0.8,1.6-1.4,3.1-2.6,4.5c-0.8,0.9-1.2,2.2-1.5,3.4c-1,3.8-3,6.8-5.6,9.7c-1.8,2.1-3.4,4.6-4.4,7.2c-1.2,3.1-2.6,6.1-5.1,8.2
			c0.3,2.3-1.4,3.7-1.9,5.4c-1.1,3.6-2.4,7.1-5.3,9.8c-1,1-1.1,2.7-2.5,3.5c-0.3,0.2-0.2,0.9-0.4,1.3c-1.7,2.7-2.9,5.7-5.6,7.7
			c-1.2,0.9-2.2,2.5-2.1,3.5c0.1,4-2.6,6.1-4.9,8.5c-0.8,0.8-2.1,1.7-2.1,2.6c-0.1,3.1-2.4,4.8-3.8,6.3c-1,4.4-3.1,7.7-5.1,11
			c-1.5,2.6-2.8,5.3-5.1,7.5c-1.3,1.3-1.3,3.7-2.1,5.5c-1.8,3.8-4.5,7.2-6.9,10.7c-3.7,5.4-6.8,11.1-10,16.8
			c-0.5,0.9-1.1,1.5-1.6,2.3c-0.5,0.7-1.3,0.9-1.5,1.9c-0.5,3.2-2.4,5.7-4.4,8.2c-1.3,1.6-1.8,3.9-2.5,5.9c-0.9,2.3-3.2,3.4-4.4,5.7
			c-2.2,4.3-4.2,8.9-8,12.2c-0.6,0.5-0.4,1.2-0.7,1.7c-1.6,2.5-1.6,5.8-3.9,7.9c-1.2,5.9-5,10.6-7.8,15.8c-0.3,0.6-1.2,1-1.2,1.5
			c0.1,3.2-2.3,4.8-4.1,6.8c0,0.6,0.2,1.2,0,1.6c-1.9,3.1-3.5,6.4-5.8,9.1c-3.3,3.9-5.7,8.3-8.1,12.7c-1,1.8-2.1,3.5-3.5,5
			c-1.8,2-3.6,3.9-3.7,7c0,1.2-0.8,2.7-1.9,3.7c-0.7,0.7-1.5,1.3-1.9,2.2c-2.7,5.8-8.1,9.7-10.8,15.5c-3.6,3.1-4,8.2-7.2,11.5
			c0.4,2.4-1.7,3.8-2.8,5.3c-1.3,1.8-1.2,3.9-2.3,5.6c-0.2,0.3-0.5,0.5-0.7,0.7c-2.7,2.6-3.9,6-5.2,9.4c-0.7,1.7-1.1,3.8-2.3,5
			c-3.8,3.6-4.9,9-9.1,12.3c-0.3,0.2-0.4,0.8-0.5,1.3c-0.8,2.2-2.4,3.8-4.1,5.3c0.6,3-1.1,5.4-2.6,7.4c-2.6,3.6-3.7,7.9-6.3,11.4
			c0,2.8-2.3,4.4-3.5,6.6c-1.3,2.3-2.3,4.9-4.5,6.4c-0.2,1.1,0,2-0.7,2.9c-3.2,4.3-6.7,8.5-9.1,13.2c-2.4,4.6-3,10-5.4,14.8
			c-1.5,1.5-3.2,3.3-3.7,5.4c-1.5,5.6-5.1,10.2-7.1,15.6c-0.2,0.6-0.7,1.1-1.2,1.5c-3.1,2.5-4.5,6.4-7.7,8.7c0,1.4,0,2.8,0,3.7
			c-1.3,2.5-2.5,4.7-3.9,6.8c-0.5,0.8-1.5,1.7-1.1,3c0.3,1-0.4,1.7-0.9,2.6c-2.1,3.9-4.2,7.9-6,12c-0.3,0.8-0.6,1.5-1.2,2
			c-1.5,1.3-2,3.2-3,4.8c-1.5,2.4-1.9,5.5-4.1,7.3c-1.9,1.5-2.4,3.7-2.5,5.4c-0.2,2.3-3.4,3-2.2,5.5c-1.4,1.4-2.8,2.7-3.8,3.7
			c-1.2,5.9-4.9,10.5-5.3,16.8c-0.8,0.7-2,1.6-3,2.5c0,1.9,0,3.5,0,5.1c-2.5,3.2-2.4,7.1-3.6,10.6c-0.6,1.8-0.1,3.6-0.3,5.2
			c1.1,1.4,2,2.6,2,4.3c0.2,4.6,0.9,9.2,2.1,13.6c0.7,2.6,0.4,5.8,2.7,7.9c1.5,1.3,2.5,2.9,3.1,4.7c0.4,1.1,1.1,1.9,1.8,2.2
			c2.9,1,3.9,3.6,5.2,5.8c1.3,2.2,3.9,3.4,4.6,6c3.8,1.7,5.7,5.4,8.8,7.8c0.8,0.5,1.7,0.2,2.7,0.7c3.8,1.7,7.7,3.2,11.6,4.7
			c2.8,1,5.3,2.4,8.3,3.1c2.9,0.6,5.8,1,8.7,1.8c1.3,0.4,2.5,1.5,4.1,1.1c2.5-0.7,4.7,0.8,7,1.2c0.5,0.1,0.9,0.8,1.7,0.8
			c2.3-0.1,4.7,0.2,7-0.1c2.5-0.4,4.6,1.6,7.1,1.1c2.1-0.4,4.2-0.2,6.1,1c1.9,1.2,4,1,6.1,1c7.8,0,15.7,0,23.5,0
			c1.4,0,2.7,0.1,4.2,0.6c2.9,1,6.4,1.1,9.2,0c2.4-0.9,4.5-0.3,6.7-0.6c0.7-0.1,1.4,1.4,2.2-0.1c2.9,0.3,5.9-0.9,8.6,1
			c1-0.3,1.8-1.2,3.1-1c1.6,0.2,3.5,0.5,5,0c3.3-1.2,6.4-1.3,9.7,0c1.3,0.5,3.2,0.6,4.4,0c2.5-1.2,4.8-1.5,7.3,0
			c0.5,0.3,1.7,0.5,2.3-0.3c0.9-1.1,2.1-0.6,3.2-0.6c3.2-0.1,6.3,0.1,9.5,0c2.9-0.1,5.8,0.7,8.6-0.9
			C254.6,764.3,255.4,765.3,256.8,766.2z"/>
		<path class="st2" d="M344.4,266.5c1.9-2.5,2-6.2,5.8-6.8c1.5-4.9,4.4-8.5,9.3-10.5c4.8-2,9.3-4.7,14.7-4.3c2-2.2,5.2,0.3,6.9-2.2
			c1.4,0.7,2.5,1.8,3.8,1.1c4.6-2.4,9.4-2.9,14.3-1c0.4,0.2,1.2,0.2,1.5,0c1.9-1.7,4.1-0.7,6.1-1c0.9-0.1,1.9,0.4,2.8-0.6
			c0.8-0.9,2.1-0.7,2.8-0.3c4.3,1.9,8.8,0.5,13.1,0.9c1.1,0.1,1.8-0.3,2.6-1c0.6-0.4,8.9,1.4,10.3,2c2.2-1.7,4.9-1.1,7.4-1
			c2.5,0.1,5.2-0.8,7.6,1c0.7-0.3,1.3-1,2-1c4.7-0.1,9.4-0.5,14,0.1c4.9,0.6,10,1.3,14.6,3.2c2,0.8,4.3,0.6,6.2,1.9
			c2.1,1.4,5.1,1.8,7,3.4c3.3,2.7,6.7,5.7,9.1,9.2c2.7,3.9,5.6,8.1,5,13.4c-0.3,3-0.1,6,0,9c0.1,3.9-0.5,7.6-1.9,11.2
			c-0.2,0.4-0.2,1-0.1,1.5c0.7,5.4-1.4,10.7-1,16.1c0.1,2.1-1.4,3.8-1.1,6.1c0.3,2-0.4,4.1-0.7,6.1c-0.6,4.1-0.2,8.3-0.2,12.3
			c-1.8,1.8-2.1,4-2,6.3c0.1,2.2,0.8,4.9-0.2,6.4c-1.2,1.8,0.3,4.1-1.7,5.4c-0.2,0.1-0.1,0.6,0,1c0.2,1.8,1.9,3.4,0.6,5.4
			c-1.2,2-0.4,4.2-0.6,6.2c-0.1,2,0,4,0,6c-1.8,3.2-2.8,6.6-3,10.3c-0.1,2.2-0.3,4.4,0.1,6.5c0.4,2.6-1.3,4.6-1.1,7.1
			c0.2,2.3,0.7,4.9-0.1,6.9c-1,2.6-0.6,5.1-0.8,7.6c-0.1,0.9,0.1,1.8-0.7,2.8c-0.7,0.9-0.4,1.1,0.7,3.5c-1.8,2.6-0.6,5.6-1.1,8.5
			c-0.5,2.7-0.6,5.6-1.8,8.4c0.1,0.1,0.4,0.3,0.5,0.5c1.1,2.3-0.5,4.3-0.6,6.5c-0.1,1.9,2.2,3.8,0,5.7c-0.4,4.7-2.8,9.2-2.2,14.1
			c0.3,2.4-1.5,4.5-1,7.1c0.5,2.3-1,4.3-1.3,6.4c-0.2,1.5-0.7,2.9-0.6,4.4c0.3,3.1-0.7,5.9-1.7,8.8c-0.6,1.8,0.5,4-0.5,5.3
			c-1.3,1.8-0.5,2.8,0.1,4.3c0.5,1.3,0.7,3.3,0,4.4c-1.4,2.2-1,4.5-0.8,6.7c0.4,5.1-0.7,10.1-1.2,15.1c-0.1,1.4-0.3,3.5-1.8,4.7
			c0.3,3.7-1.7,7.2-1.8,10.7c-0.1,7-2.8,13.1-5.1,19.5c-1.6,4.4-3.5,8.4-6.9,11.7c-1.8,1.7-4.1,2.3-6.1,3.5
			c-0.5,0.3-1.1,0.6-1.6,1.1c-1.6,0-3.8-0.7-4.8,0.2c-1.3,1.1-2.7,0.5-4,1.4c-1.6,1.2-4.2-0.3-5.9,1.4c-4.3-0.7-8.4,1.1-12.6,1
			c-1.2,0-2.4-0.1-3.7,0.7c-1,0.7-3.1,0.7-4.3,0.1c-3.2-1.5-6.4-0.5-9.6-0.9c-2-0.3-4.1,0.6-6.2-0.8c-1.6-1.1-4.1,0.6-6.1-1
			c-0.7-0.6-2.5-0.5-3.4,0c-1.4,0.9-3,1.4-4.1,0.8c-2.6-1.5-5.9-0.6-8.5-2.7c-1.5-1.2-3-2.4-4.4-3.7c-1.3-1.3-0.6-3.7-2.2-5.1
			c-1.5-1.3-2.1-3.1-3-4.7c-0.6-1.1-0.9-2.3-1.9-3.2c-3-2.7-3.9-6.4-4-10.3c0-2.9,0.5-5.8-1.7-8.3c-0.9-1-0.3-2.6-0.3-3.8
			c0.1-4.2-0.3-8.2-1.9-12.2c-1.4-3.5-2.1-7.4-2-11.1c0.1-2.4-1.3-4.3-1.2-6.6c0.1-2.2,0.9-4.6-0.9-6.6c-0.2-0.3-0.1-1,0-1.5
			c0.6-3-0.7-5.8-1.3-8.5c-0.4-1.7,1.7-3.6-0.7-4.9c0.7-3.6-1.6-6.3-2.5-9.5c-0.6-2.2-0.9-4,0.6-6c-0.6-1.2-1.3-2.4-2.1-4
			c0.5-1.6-1-3.9,0.9-5.7c-2-2.4-1.9-5.6-2.9-8.3c-1.2-3.3-0.9-6.7-1-10.1c0-1.9,0.5-3.9-1.2-5.3c0.6-0.6,0.9-1,1.2-1.3
			c0-0.4,0.1-0.8,0-1c-2.2-3.9-4.3-7.8-1.9-12.4c-0.9-2.2-0.8-4.6-1.4-6.9c-0.1-0.5-0.7-1-0.6-1.7c0.5-6.2-1.6-12.3-1-18.6
			c0.2-2.4,0-4.7-0.9-7.1c-0.7-2,0.1-4.3-1-6.6c-0.8-1.7-0.4-4-0.9-6.1c-0.6-2.7-1-5.6-1.9-8.2c-0.3-0.8,0.5-0.7,0.5-1.1
			c0.1-2.4,0.8-4.8-0.5-7.1c-0.4-0.8-0.4-2-0.2-2.9c0.6-3.2-0.6-6.1-1.2-9c-0.3-1.5-0.9-3.1-0.8-4.6c0.3-4.9-1.5-9.6-1.1-14.6
			c0.4-4.8,0-9.7,0.1-14.5c0-1.9-1.4-3.5-1.1-5.6c0.3-1.7,0.7-3.6-0.9-5.1c0.5-3.5-0.6-7.1,0.7-10.7c0.8-2.3,0.8-5.1-0.2-7.7
			c-0.6-1.4-0.4-2.6,0.1-4.1C343.2,274,345.2,270.4,344.4,266.5z M479.2,271c-3.3-1.3-6.4-1.7-9.5-2.1c-1.7-0.3-3.4,0-5.1-1
			c-1.8-1-3.5,1.2-5.5,0.9c-0.5-0.1-1.1,0.2-1.5,0c-1.3-0.7-2.6-1.2-4.1-1c-1.3,0.2-3-0.7-3.8,0.4c-1.2,1.8-2.2-0.4-3.6,0.2
			c-2.1,1-5,1-7.2,0.1c-3-1.2-5.8-0.3-8.7-0.7c-2,1.9-4.4,0.9-6.6,0.9c-2.4,0.1-4.8,0.6-7.1-0.9c-1.1-0.7-1.9,0.9-3.2,1
			c-0.3-0.2-0.6-0.7-1-0.7c-1.6-0.2-3.3-0.5-4.9-0.2c-1.6,0.3-3.1,0.3-4.7,0c-1.6-0.3-3.3,0-4.9,0.2c-0.5,0.1-1,0.7-1.7,0.7
			c-1,0.1-1.5-0.4-1.8-0.7c-2.4,1.3-5,0.6-7.3,0.7c-2.4,0.1-4.5,1.8-6.8,1c-1.7,1.7-4.1,1.6-5.4,3.3c0,2.1-1.3,3.8-2.3,5.8
			c1.2,5.3-2.8,10.9,0,16.5c-0.9,0.5-0.7,1.5-0.9,2.5c-0.6,4.3,1,8.4,1.1,12.6c0,2-0.7,4.3,1,6.1c-0.7,2.1,0.6,4,0.2,6.2
			c-0.7,3.5-0.9,7.5,0,10.9c1.2,4.4,1.6,8.9,2.6,13.3c0.9,3.9,0.5,8,1,12.1c0.6,4.6,0.2,9.2,2.1,13.7c0.4,1,0.5,2.6-1.2,3.7
			c1.6,0.3,1.2,1.5,1.2,2.4c0,2.3-0.6,4.9,0.2,6.9c0.9,2.6,1.1,5.2,1.7,7.8c0.7,2.7-0.1,5.6,0.2,8.5c0.3,3,1.4,6,0.9,9.1
			c2.3,2.2,0.2,5.3,1.5,7.9c1.3,2.5,0.2,5.5,0.5,8.3c0.1,1-0.5,1.4-0.8,1.7c1.4,3.2,3.1,6.1,2.7,9.6c-0.3,2.4,1.5,4.2,1.1,6.6
			c-0.3,2.3-0.1,4.7-0.1,7c0,0.5,0.1,1,0.3,1.4c2.8,5.5,2.4,11.7,3.6,17.5c0.4,1.9,0.5,3.8,2,5.2c0.3,2.8-0.6,5.7,0.5,8.3
			c0.6,1.4,0.9,3,1.5,4.4c0.6,1.4,0.1,3.3,0.1,4.9c0,3.2,0,6.3,0,9.2c2.5,3.4,2.6,7.3,2.9,11c0.3,3.2,1.3,6.1,2.1,9.1
			c0.2,0.7,1,1.1,1,2.1c-0.1,3.2-0.1,6.3,0,9.5c0.2,3.2,1.6,6.2,0.9,9.5c2,1.5,3.1,3.4,4.4,5.4c0.9,0,1.7,0.1,2.5,0
			c1.1-0.2,1.4,1.5,2.5,1.1c0.6-0.4,1.1-0.9,1.7-1c2.7-0.3,6.1-0.2,8.5,1.1c1.3,0.7,2.4,0.8,3.7,0.8c2.5,0.1,5,0,7.5,0
			c1.7,0,3.6,0.5,4.9-0.2c3.3-1.8,6.7-1.9,10.1-1.8c0.6-0.9,1.5-1.2,1.4-2.2c-0.1-3.2,1.4-6.1,2.1-9.1c0.3-1.2,1-2.4,0.8-3.6
			c-0.5-4.8,1.4-9,3.1-13.3c-0.3-0.5-0.7-1-1-1.5c-0.1-0.5,0.4-0.9,0.5-1.3c1.1-3.8,2.9-14,2.6-17.1c-0.3-2.4-0.1-4.7,0.9-7.1
			c1-2.4,2-5,0.2-7.7c-0.5-0.8-0.6-2.8,0-3.3c1.8-1.7,0.1-3.9,1.3-5.5c1.4-1.8,0.2-3.9,0.8-5.8c1.8-1.6,2-3.8,1.9-6.1
			c-0.1-1.2-0.5-2.6,0.1-3.4c1.1-1.5,1.2-3.1,0.8-4.6c-0.5-2,1.2-3.3,1.1-5.1c-0.1-1.8-0.6-4,0.1-5.4c1-2,1.4-3.5-0.1-5.2
			c1.9-2.3,0.7-5.1,0.9-7.6c0.2-2.7,0-5.3,0-8c0-0.7-0.3-1.6,0-2c2.2-2.6,0.6-5.8,1.7-8.8c1.1-2.9,0.2-6.6,0.2-9.9
			c0-1.5-0.4-3.1,0.1-4.5c1.2-3.7,2.2-7.3,1.8-11.2c-0.1-1.3,1.3-1.5,1.1-2.6c-0.3-1-0.9-1.9-1.1-3.1c-0.4-2.7,1.2-5,1.1-7.6
			c-0.1-2.2,0.3-4.1,1.9-5.7c0.6-5.9-0.6-11.8,1-17.6c0.6-2-0.6-4.7,0.3-6.4c1-1.9,0.6-4,1.6-5.9c0.6-1.2,0.8-3.2,0.4-5.1
			c-0.5-2.4-0.2-5,0.6-7.6c0.8-2.4,1.7-5.2,1.3-8c-0.3-2.1-0.1-4.3-0.1-6.5c2.2-1.5-0.2-4.6,2-6.2c0-3.1-0.4-6.2,1-9.1
			c-1.9-2.1,0-4.1-0.1-6.2c-0.3-5.3,1.8-10.3,1.1-15.6c-0.1-1,0.4-1.5,1-2C481.3,273.9,479.5,273.1,479.2,271z"/>
		<path class="st2" d="M360.5,641.2c2.6-1.7,2-4.8,2.8-7.2c1.3-3.9,3.3-7.4,5.3-10.8c0.9-1.5,2-2.8,1.8-4.8c1.7-2.3,4.1-4.1,5.7-6.6
			c1.5-2.4,3.9-4.3,6.5-5.8c4.1-2.3,7.5-5.6,11.8-7.8c3-1.5,6.5-2.1,9.3-4.1c1.6-1.1,4,0.6,5.4-1.3c6.4-0.4,12.8-2.4,19.2,0
			c0.7,0.3,1.7,0.1,2.5,0c4.2-0.1,8.3,0.2,12.2,2c0.3,0.1,0.7,0.1,1,0c4.5-0.5,7.8,2.1,11.3,4.2c1.3,0.8,2.8,1.4,4.1,2.1
			c1.8,1,4,0.8,5.5,2.5c1.4,1.5,2.8,2.9,4.1,4.2c2.5-0.4,3.7,1.2,4.6,3c0.8,1.7,1.6,3.5,3.2,4.7c3.7,2.6,4.8,6.5,5.8,10.6
			c0.2,0.9-0.2,1.8,0.5,2.8c1,1.4,1.6,3,2.5,4.8c0,2.3,0,5,0,7.6c2.7,3.1,2.6,6.5,1.9,10.3c-0.6,3.4-1,6.7-0.9,10.1
			c0.1,2.3,0,4.5-1.7,6.3c-1.7,1.8-1.3,4.2-1.3,5.9c-2.2,4.2-5.4,7.3-7.4,11c-1.7,3.1-3.6,5.7-6.1,7.9c-5.7,4.9-11.2,10.2-17.9,13.6
			c-5.4,2.7-11,6.4-17.7,5.4c-2.3-0.3-4.2,1.4-6.6,1.1c-2.1-0.3-4.3-0.2-6.5,0c-4.6,0.5-9-1.6-13.6-1c-3.7-2-8.4-1.3-11.5-4.8
			c-0.5-0.5-1.5-0.9-2-1c-4.4-0.7-7.2-3.8-10.4-6.2c-0.7,0-1.3-0.1-1.8-0.1c-4-4-7.9-7.8-10-13.9c-2-2.1-3.8-5.4-6.7-7.9
			c-0.9-0.8-1.7-2.2-1.6-3.2c0.2-3-2.2-4.8-2.9-7.4c0.4-4.7-1.7-9.2-1.3-14c0.2-2.1,1.6-3.8,1.2-6.1
			C360.2,645.3,360.5,643.3,360.5,641.2z M456.5,637.4c-1.1-1.2-2.7-2.2-2.9-3.4c-0.6-4.6-4-7.3-7.2-9.4c-3.3-2.3-6.9-4.5-11.4-5
			c-2.3-0.2-5,0-7-1c-1.8-0.9-3.8-1.2-5.1-0.6c-3.3,1.4-6.8,0.4-9.1,0.8c-8.1,3.5-12,10.6-18.5,14.3c0.8,2.2-0.6,3.5-1.4,4.7
			c-3,4.1-4.2,8.7-4.4,13.7c-0.1,2.7,1,5.1,1,7.6c0,2.8,0.7,5.3,2,7.7c1.3,2.3,2.4,4.7,3.3,6.6c3.4,1.8,5.4,4.7,8.2,6.6
			c2.7,1.9,6.3,2.7,7.8,5.6c3.1,0.6,6.2-0.7,8.8,1.2c0.9-0.1,1.2-1.2,2.2-1c3.8,0.8,7.3-1.2,11.1-1c0.9,0.1,1.5-0.7,2.1-0.9
			c2.9-0.6,4.4-3.2,6.6-4.6c5.7-3.5,8.7-9.1,12.4-14.3c1.9-2.7,1.3-5.8,2.4-8.5c2.1-5,1.7-10.4-0.3-15.5
			C456.5,639.7,456.7,638.5,456.5,637.4z"/>
	</g>
</g>
</svg>
